<?xml version="1.0" standalone="no"?>
<!DOCTYPE svg PUBLIC "-//W3C//DTD SVG 20010904//EN"
 "http://www.w3.org/TR/2001/REC-SVG-20010904/DTD/svg10.dtd">
<svg version="1.0" xmlns="http://www.w3.org/2000/svg"
 width="600.000000pt" height="338.000000pt" viewBox="0 0 600.000000 338.000000"
 preserveAspectRatio="xMidYMid meet">
<metadata>
Created by potrace 1.16, written by Peter Selinger 2001-2019
</metadata>
<g transform="translate(0.000000,338.000000) scale(0.100000,-0.100000)"
fill="#000000" stroke="none">
<path d="M0 2736 c0 -410 4 -647 10 -651 5 -3 19 -1 31 6 15 8 19 8 15 0 -4
-6 0 -11 8 -11 9 0 16 5 16 10 0 6 15 11 33 11 31 2 31 2 -8 9 -37 7 -38 7
-10 10 30 2 44 5 58 10 11 4 26 7 40 9 8 1 7 4 -3 11 -12 8 -9 10 13 10 16 0
26 4 22 9 -3 6 4 10 15 10 11 1 29 1 40 2 11 0 19 6 17 12 -1 7 5 12 13 12 8
0 18 8 22 17 5 11 23 20 50 24 33 6 38 9 23 15 -14 5 -8 8 23 8 26 1 41 5 37
11 -3 6 4 10 17 10 18 0 20 2 8 10 -11 7 -7 10 18 10 20 0 31 4 27 10 -3 6 3
10 15 10 14 0 19 4 14 13 -5 7 -1 7 12 -3 10 -8 16 -11 12 -6 -4 4 -1 14 5 21
9 10 15 10 26 1 11 -8 13 -8 8 1 -5 8 2 13 20 15 16 2 27 8 26 16 -2 7 8 12
26 12 35 0 88 25 69 33 -7 3 2 6 20 6 23 1 31 5 26 13 -5 8 -2 9 9 5 9 -3 19
-1 23 5 4 6 3 8 -4 4 -6 -3 -13 -2 -17 4 -4 6 9 10 32 10 28 0 34 3 23 10 -8
5 -10 10 -4 10 5 0 16 -6 23 -12 11 -10 13 -10 7 0 -5 8 0 12 15 12 19 0 21 4
14 33 -4 17 -9 62 -11 100 -4 59 -2 67 13 68 16 0 15 2 -2 9 -16 7 -12 9 18 9
23 1 36 5 32 11 -4 6 6 10 22 10 22 0 25 2 13 10 -19 12 -26 11 119 16 69 2
127 6 129 9 3 3 -38 5 -91 5 -54 0 -97 4 -97 9 0 5 12 9 26 9 15 0 30 5 34 12
4 7 13 9 19 6 6 -4 11 -2 11 3 0 6 8 11 18 11 9 0 23 9 30 20 9 16 23 20 65
21 38 0 47 3 32 9 -18 8 -17 9 6 9 25 1 51 31 27 31 -6 0 -8 3 -5 6 4 4 14 1
24 -7 11 -9 14 -10 9 -1 -4 7 -1 12 8 12 9 0 16 5 16 10 0 6 5 10 11 10 5 0 7
-6 4 -12 -4 -7 0 -5 8 5 8 9 21 17 30 17 8 0 18 6 20 13 4 9 6 9 6 -2 1 -7 14
1 31 19 16 18 30 27 30 21 0 -6 8 -11 18 -11 14 0 15 2 2 10 -11 7 -5 10 23
10 20 0 37 5 37 10 0 6 10 10 23 11 21 0 21 1 2 9 -17 7 -16 9 10 10 30 2 30
2 5 10 -20 7 -16 8 23 9 40 1 47 4 47 21 0 13 5 18 15 14 8 -4 15 -1 15 5 0 8
58 12 188 13 138 2 98 4 -153 8 -187 3 683 6 1933 8 l2272 2 0 115 0 115
-3000 0 -3000 0 0 -644z m850 588 c0 -8 -5 -12 -10 -9 -6 4 -8 11 -5 16 9 14
15 11 15 -7z m4748 -83 c21 -13 11 -55 -14 -59 -30 -4 -48 21 -34 47 11 22 27
26 48 12z m-5313 -12 c4 -6 0 -9 -8 -7 -9 2 -15 -1 -14 -7 1 -5 8 -9 16 -8 9
1 10 -2 2 -10 -16 -16 -45 11 -30 29 14 17 25 18 34 3z m5112 -22 c-6 -18 -37
-16 -37 2 0 10 3 21 7 24 8 9 35 -13 30 -26z m103 8 c0 -18 -5 -25 -20 -25
-11 0 -20 5 -20 11 0 5 5 7 10 4 6 -3 10 1 10 10 0 9 -4 13 -10 10 -5 -3 -10
-1 -10 4 0 6 9 11 20 11 15 0 20 -7 20 -25z m-5423 -3 c-10 -2 -14 -9 -11 -15
5 -9 4 -9 -6 0 -17 15 -4 34 18 25 16 -6 16 -7 -1 -10z m5215 -4 c-12 -12 -35
-1 -27 12 3 5 13 6 21 3 10 -4 12 -9 6 -15z m432 14 c3 -5 -1 -9 -9 -9 -8 0
-12 4 -9 9 3 4 7 8 9 8 2 0 6 -4 9 -8z m-4944 -12 c0 -5 -8 -10 -17 -10 -15 0
-16 2 -3 10 19 12 20 12 20 0z m4971 -13 c-10 -9 -11 -8 -5 6 3 10 9 15 12 12
3 -3 0 -11 -7 -18z m-4464 -53 c-3 -3 -12 -4 -19 -1 -8 3 -5 6 6 6 11 1 17 -2
13 -5z m40 0 c-3 -3 -12 -4 -19 -1 -8 3 -5 6 6 6 11 1 17 -2 13 -5z m40 0 c-3
-3 -12 -4 -19 -1 -8 3 -5 6 6 6 11 1 17 -2 13 -5z m-1214 -71 c4 -3 -1 -15
-10 -26 -17 -18 -17 -19 0 -32 13 -9 15 -15 7 -20 -6 -4 -22 3 -35 15 l-24 22
22 23 c24 26 30 29 40 18z"/>
<path d="M4691 3058 c-14 -38 8 -78 43 -78 29 0 46 18 46 50 0 34 -17 50 -52
50 -21 0 -31 -6 -37 -22z m54 2 c3 -5 -1 -10 -9 -10 -10 0 -16 -9 -16 -22 0
-12 -3 -19 -6 -15 -9 9 4 57 16 57 5 0 12 -4 15 -10z m10 -45 c0 -10 -6 -20
-12 -22 -9 -3 -12 4 -11 21 3 29 23 30 23 1z"/>
<path d="M4503 2993 c9 -2 23 -2 30 0 6 3 -1 5 -18 5 -16 0 -22 -2 -12 -5z"/>
<path d="M5748 2993 c7 -3 16 -2 19 1 4 3 -2 6 -13 5 -11 0 -14 -3 -6 -6z"/>
<path d="M903 2363 c15 -2 39 -2 55 0 15 2 2 4 -28 4 -30 0 -43 -2 -27 -4z"/>
<path d="M840 2326 c0 -14 4 -26 8 -26 11 0 12 39 1 45 -5 4 -9 -5 -9 -19z"/>
<path d="M3204 2338 c-9 -14 -17 -312 -9 -346 l5 -22 188 2 187 3 2 180 c1
107 -2 182 -8 186 -5 3 -88 7 -183 8 -132 2 -176 -1 -182 -11z m220 -78 c20
-7 26 -17 26 -39 0 -24 7 -34 31 -46 25 -14 30 -21 27 -48 -4 -42 -47 -65 -91
-49 -19 7 -37 8 -54 1 -17 -6 -37 -6 -59 1 -30 10 -34 16 -34 46 0 27 6 36 30
49 23 12 30 22 30 45 0 44 40 61 94 40z"/>
<path d="M3365 2251 c-20 -8 -20 -8 1 -15 28 -9 61 3 42 15 -15 10 -17 10 -43
0z"/>
<path d="M3408 2219 c-10 -5 -18 -19 -18 -29 0 -34 33 -20 42 18 7 24 2 27
-24 11z"/>
<path d="M3306 2161 c-7 -10 23 -20 42 -14 6 3 12 9 12 14 0 12 -47 12 -54 0z"/>
<path d="M3416 2161 c-7 -10 23 -20 42 -14 6 3 12 9 12 14 0 12 -47 12 -54 0z"/>
<path d="M3358 2139 c-17 -10 -26 -49 -10 -49 18 1 33 19 30 38 -2 17 -6 19
-20 11z"/>
<path d="M3468 2139 c-17 -10 -26 -49 -10 -49 18 1 33 19 30 38 -2 17 -6 19
-20 11z"/>
<path d="M2478 2228 c-18 -24 -39 -49 -46 -57 -9 -9 -12 -40 -10 -105 l3 -91
188 -3 c103 -1 187 1 187 5 0 5 -31 7 -70 5 -38 -2 -70 -1 -70 3 0 3 11 18 25
33 l25 27 -95 3 -95 3 -1 102 c-1 56 -1 105 0 110 2 15 -8 6 -41 -35z"/>
<path d="M2540 2170 l0 -100 75 0 75 0 0 75 c0 70 -1 74 -22 73 -42 -2 -48 2
-48 27 0 23 -4 25 -40 25 l-40 0 0 -100z m91 2 l-21 -3 22 -19 23 -19 -22 -22
c-20 -20 -23 -21 -37 -6 -22 21 -20 30 4 24 11 -3 20 -1 20 4 0 5 -7 9 -15 9
-24 0 -29 29 -10 50 17 19 19 19 38 3 19 -18 19 -18 -2 -21z"/>
<path d="M2640 2250 c0 -5 10 -10 23 -10 18 0 19 2 7 10 -19 13 -30 13 -30 0z"/>
<path d="M1676 2206 c-26 -36 -29 -50 -31 -121 -2 -126 -20 -115 191 -115 100
0 185 3 187 8 3 4 -24 5 -60 4 -60 -4 -64 -3 -55 15 6 10 20 28 32 41 l21 22
-125 0 -125 0 -3 94 -3 93 -29 -41z"/>
<path d="M1846 2217 c-15 -11 -16 -15 -3 -25 11 -10 17 -9 27 3 18 22 0 39
-24 22z"/>
<path d="M1027 2193 c18 -2 50 -2 70 0 21 2 7 4 -32 4 -38 0 -55 -2 -38 -4z"/>
<path d="M4015 2155 c-34 -42 -37 -51 -37 -110 -1 -36 2 -68 5 -72 7 -7 349
-4 356 3 2 2 -39 4 -92 4 -53 0 -97 3 -97 7 0 4 23 29 51 56 49 47 50 48 23
45 -18 -2 -29 -9 -29 -18 0 -25 -52 -25 -65 -1 -6 12 -21 21 -34 21 -15 0 -27
9 -34 25 -6 14 -8 25 -3 25 16 0 21 31 7 45 -12 12 -19 8 -51 -30z"/>
<path d="M4145 2186 c-15 -11 -16 -16 -5 -35 7 -14 17 -20 27 -17 8 3 17 6 19
6 2 0 4 11 4 24 0 29 -22 39 -45 22z"/>
<path d="M911 2148 c-18 -23 -26 -26 -32 -16 -5 8 -9 -23 -9 -74 l0 -87 34 -6
c18 -4 62 -4 97 -2 35 3 106 6 157 6 50 1 92 4 92 9 0 4 -38 6 -85 4 -47 -2
-85 -1 -85 3 0 11 63 100 77 108 7 4 18 18 23 30 9 19 9 20 -2 7 -30 -36 -63
-50 -120 -50 -31 0 -69 -5 -84 -10 -33 -13 -39 -8 -23 18 10 16 10 26 2 44 -6
13 -13 28 -15 34 -2 6 -14 -2 -27 -18z"/>
<path d="M1762 2157 c-12 -13 -22 -35 -22 -50 0 -26 2 -27 56 -27 52 0 60 3
100 39 36 34 40 42 28 52 -12 10 -20 7 -44 -16 -25 -24 -31 -26 -46 -15 -14
12 -18 11 -34 -10 -16 -21 -20 -22 -34 -11 -15 13 -15 16 5 38 13 12 20 23 17
23 -2 0 -14 -10 -26 -23z"/>
<path d="M1027 2153 c18 -2 50 -2 70 0 21 2 7 4 -32 4 -38 0 -55 -2 -38 -4z"/>
<path d="M158 2103 c6 -2 18 -2 25 0 6 3 1 5 -13 5 -14 0 -19 -2 -12 -5z"/>
<path d="M0 2066 c0 -7 7 -13 15 -13 19 0 19 13 0 21 -9 3 -15 0 -15 -8z"/>
<path d="M27 2023 c18 -2 50 -2 70 0 21 2 7 4 -32 4 -38 0 -55 -2 -38 -4z"/>
<path d="M912 1895 c0 -16 2 -22 5 -12 2 9 2 23 0 30 -3 6 -5 -1 -5 -18z"/>
<path d="M1000 1916 c0 -2 9 -6 20 -9 11 -3 18 -1 14 4 -5 9 -34 13 -34 5z"/>
<path d="M942 1890 c0 -14 2 -19 5 -12 2 6 2 18 0 25 -3 6 -5 1 -5 -13z"/>
<path d="M4030 1906 c0 -2 7 -7 16 -10 8 -3 12 -2 9 4 -6 10 -25 14 -25 6z"/>
<path d="M1050 1890 c0 -6 7 -10 15 -10 8 0 15 2 15 4 0 2 -7 6 -15 10 -8 3
-15 1 -15 -4z"/>
<path d="M1740 1896 c0 -2 7 -9 15 -16 9 -7 15 -8 15 -2 0 5 -7 12 -15 16 -8
3 -15 4 -15 2z"/>
<path d="M1905 1891 c-3 -5 -2 -12 3 -15 5 -3 9 1 9 9 0 17 -3 19 -12 6z"/>
<path d="M2488 1877 c-3 -14 0 -24 7 -24 7 0 10 10 7 24 -2 13 -6 23 -7 23 -1
0 -5 -10 -7 -23z"/>
<path d="M2570 1890 c0 -5 5 -10 11 -10 5 0 7 5 4 10 -3 6 -8 10 -11 10 -2 0
-4 -4 -4 -10z"/>
<path d="M2640 1890 c0 -6 7 -10 15 -10 8 0 15 2 15 4 0 2 -7 6 -15 10 -8 3
-15 1 -15 -4z"/>
<path d="M4017 1889 c7 -7 15 -10 18 -7 3 3 -2 9 -12 12 -14 6 -15 5 -6 -5z"/>
<path d="M1206 1871 c-3 -4 -66 -8 -141 -8 -74 0 -137 -2 -140 -5 -3 -3 58 -5
135 -5 105 0 143 3 151 13 6 8 9 14 6 14 -3 0 -8 -4 -11 -9z"/>
<path d="M2562 1865 c15 -16 20 -17 30 -6 11 11 10 13 0 7 -7 -4 -21 -2 -30 5
-15 12 -15 11 0 -6z"/>
<path d="M3310 1870 c0 -5 5 -10 10 -10 6 0 10 5 10 10 0 6 -4 10 -10 10 -5 0
-10 -4 -10 -10z"/>
<path d="M1745 1859 c3 -4 23 -7 46 -7 23 -1 39 1 37 3 -8 8 -87 12 -83 4z"/>
<path d="M1845 1860 c-2 -4 16 -7 41 -7 24 -1 46 2 48 5 2 4 -16 7 -41 7 -25
0 -46 -2 -48 -5z"/>
<path d="M2615 1860 c-2 -4 11 -7 30 -7 19 0 33 3 30 5 -8 8 -56 9 -60 2z"/>
<path d="M3420 1860 c-9 -6 -10 -10 -3 -10 6 0 15 5 18 10 8 12 4 12 -15 0z"/>
<path d="M4018 1858 c5 -5 16 -8 23 -6 8 3 3 7 -10 11 -17 4 -21 3 -13 -5z"/>
<path d="M4068 1858 c5 -5 16 -8 23 -6 8 3 3 7 -10 11 -17 4 -21 3 -13 -5z"/>
<path d="M4277 1859 c7 -7 15 -10 18 -7 3 3 -2 9 -12 12 -14 6 -15 5 -6 -5z"/>
<path d="M3830 1036 c0 -9 5 -16 10 -16 6 0 10 4 10 9 0 6 -4 13 -10 16 -5 3
-10 -1 -10 -9z"/>
<path d="M0 150 l0 -150 3000 0 3000 0 0 150 0 150 -3000 0 -3000 0 0 -150z"/>
</g>
</svg>
