<?xml version="1.0" standalone="no"?>
<!DOCTYPE svg PUBLIC "-//W3C//DTD SVG 20010904//EN"
 "http://www.w3.org/TR/2001/REC-SVG-20010904/DTD/svg10.dtd">
<svg version="1.0" xmlns="http://www.w3.org/2000/svg"
 width="1280.000000pt" height="720.000000pt" viewBox="0 0 1280.000000 720.000000"
 preserveAspectRatio="xMidYMid meet">

<g transform="translate(0.000000,720.000000) scale(0.100000,-0.100000)"
fill="#000000" stroke="none">
<path d="M0 3600 l0 -3600 6400 0 6400 0 0 3600 0 3600 -6400 0 -6400 0 0
-3600z m8214 3013 c14 -68 37 -266 32 -271 -3 -3 -130 -22 -281 -42 -152 -20
-278 -39 -281 -42 -4 -5 58 -489 72 -559 l5 -25 197 28 c108 15 211 27 227 28
l31 0 21 -147 c11 -82 20 -149 19 -150 -1 -1 -103 -16 -226 -33 -123 -17 -225
-32 -227 -33 -2 -3 78 -608 81 -614 1 -1 129 16 285 38 156 22 286 38 288 36
7 -7 43 -291 37 -296 -5 -5 -897 -131 -901 -127 -3 3 -291 2111 -289 2114 2 1
75 12 162 24 87 11 278 38 424 58 333 47 317 47 324 13z m-1076 -270 c11 -81
19 -149 17 -151 -2 -2 -79 -14 -170 -27 -92 -13 -168 -25 -170 -27 -2 -1 52
-408 120 -903 68 -494 122 -901 119 -904 -2 -2 -76 -14 -165 -26 -110 -14
-162 -18 -165 -11 -2 6 -58 412 -125 901 -67 490 -123 892 -125 894 -3 3 -79
-5 -171 -17 -113 -16 -168 -19 -173 -12 -14 23 -42 283 -31 290 6 3 89 16 184
29 94 12 307 42 472 65 165 24 314 44 331 45 l31 1 21 -147z m-1172 -1088
c172 -566 312 -1031 310 -1032 -7 -7 -327 -46 -332 -40 -3 3 -28 83 -56 179
-28 95 -53 176 -57 180 -5 6 -390 -39 -398 -46 -2 -2 -6 -91 -10 -198 l-6
-195 -150 -22 c-83 -11 -151 -20 -152 -18 -2 2 46 2161 48 2163 5 4 454 62
471 60 16 -1 64 -150 332 -1031z m-1292 888 c8 -29 39 -283 35 -287 -2 -3
-130 -21 -284 -41 -154 -21 -281 -39 -283 -40 -4 -3 76 -576 81 -581 3 -3 105
9 227 26 122 17 224 30 225 28 7 -8 42 -294 36 -299 -3 -4 -103 -19 -221 -34
-118 -15 -218 -31 -221 -34 -4 -3 12 -141 35 -306 38 -276 43 -300 61 -302 11
-2 140 14 287 35 l268 38 5 -30 c18 -110 37 -268 33 -272 -7 -7 -897 -129
-902 -123 -3 3 -279 2004 -289 2094 -2 18 23 22 383 72 336 46 487 67 512 72
4 0 9 -7 12 -16z m-1422 -214 c116 -25 204 -93 257 -197 44 -88 65 -182 91
-409 19 -171 -22 -317 -111 -398 -32 -29 -38 -39 -28 -46 8 -5 19 -9 25 -9 26
0 108 -67 140 -114 53 -79 81 -183 119 -456 37 -259 56 -350 81 -388 18 -28
23 -26 -141 -47 -71 -9 -142 -18 -157 -21 -23 -5 -30 0 -46 33 -25 48 -35 98
-72 368 -32 234 -41 279 -71 337 -38 75 -114 100 -243 80 -38 -6 -70 -13 -72
-15 -2 -2 23 -194 55 -428 32 -233 57 -425 56 -426 -2 -3 -329 -51 -332 -49 0
0 -60 431 -132 956 -72 525 -137 1000 -145 1055 -8 55 -12 102 -10 104 9 10
542 79 611 80 40 1 96 -4 125 -10z m-1171 -181 c165 -82 234 -208 275 -506 10
-67 15 -124 13 -126 -8 -9 -304 -45 -310 -38 -3 4 -14 65 -23 137 -26 201 -60
255 -166 263 -111 8 -190 -57 -190 -155 0 -47 156 -1191 170 -1252 25 -101 69
-141 158 -141 95 0 153 40 171 120 10 44 5 97 -29 340 -5 39 -5 67 0 70 11 7
300 43 305 38 11 -10 45 -316 45 -398 -1 -110 -11 -161 -47 -239 -118 -250
-560 -333 -780 -147 -51 43 -108 137 -137 227 -36 115 -189 1217 -189 1364 0
168 54 297 157 375 107 81 213 111 387 107 111 -2 118 -3 190 -39z m4605
-1584 c40 -19 69 -63 83 -124 5 -24 9 -45 8 -47 -1 -1 -25 -5 -54 -8 l-51 -7
-7 33 c-10 47 -22 59 -61 59 -46 0 -62 -32 -46 -89 13 -41 52 -81 158 -162
102 -78 140 -197 92 -289 -31 -60 -75 -85 -155 -85 -69 0 -104 19 -136 72 -17
30 -39 124 -31 132 2 3 26 7 54 11 l49 6 7 -40 c10 -62 20 -76 57 -76 44 0 57
16 57 68 0 40 -5 49 -48 91 -26 25 -73 65 -104 88 -92 68 -133 165 -114 267
17 90 148 144 242 100z m-312 -55 c14 -70 11 -76 -44 -81 -28 -3 -53 -8 -57
-11 -3 -4 13 -140 35 -304 23 -164 38 -301 34 -304 -4 -4 -29 -9 -57 -11 l-49
-3 -41 300 -41 300 -61 -3 -60 -3 -6 48 c-3 26 -3 50 -1 52 3 3 244 39 330 50
6 0 14 -13 18 -30z m-414 -31 c42 -286 96 -705 92 -709 -4 -4 -30 -9 -58 -13
l-52 -6 -62 147 c-34 82 -78 187 -98 235 -20 48 -38 86 -40 84 -2 -3 11 -111
28 -241 18 -130 30 -238 28 -240 -3 -3 -26 -8 -51 -11 -36 -5 -47 -4 -48 7 0
8 -22 167 -48 354 -26 187 -45 343 -42 346 3 4 36 9 72 13 l66 6 78 -187 c73
-177 100 -231 90 -187 -4 18 -55 378 -55 388 0 7 99 20 100 14z m-428 -105 c3
-27 3 -50 2 -52 -2 -2 -43 -9 -91 -15 l-88 -12 1 -52 c1 -29 5 -73 9 -98 l7
-46 77 7 78 7 7 -48 c3 -26 5 -49 3 -51 -2 -1 -31 -6 -64 -9 -90 -10 -88 -7
-73 -116 7 -51 14 -96 16 -99 2 -3 45 0 95 8 51 7 94 12 95 10 2 -2 5 -26 6
-53 l3 -49 -120 -17 c-66 -9 -134 -17 -150 -17 l-31 -1 -48 351 c-52 385 -53
368 14 370 19 0 71 6 115 14 136 22 132 22 137 -32z m-358 -367 c26 -191 45
-350 43 -353 -2 -2 -27 -6 -56 -10 -42 -5 -51 -3 -51 10 0 18 -59 458 -62 467
-1 3 -5 -107 -8 -245 l-5 -250 -50 -7 c-28 -4 -52 -3 -55 2 -3 5 -35 105 -70
221 -35 117 -66 207 -68 201 -3 -9 38 -329 53 -414 4 -25 1 -27 -41 -34 -25
-3 -48 -4 -51 0 -10 9 -102 700 -95 707 4 4 39 10 79 14 l71 7 37 -119 c20
-65 54 -172 75 -238 l38 -120 1 185 c1 102 4 215 7 252 l7 66 71 9 c39 5 74 7
77 4 3 -4 27 -163 53 -355z m-584 268 c0 -8 -16 -119 -36 -246 l-35 -231 15
-115 c9 -63 14 -117 12 -119 -2 -2 -26 -7 -55 -12 -60 -9 -55 -18 -72 124 -11
94 -17 113 -115 329 -77 170 -101 232 -91 238 6 5 34 7 61 6 l48 -3 60 -148
c34 -81 62 -146 64 -144 2 1 11 74 20 161 19 174 19 174 92 175 23 1 32 -4 32
-15z m-516 -106 c8 -29 56 -186 105 -348 49 -162 89 -296 87 -297 -1 -1 -27
-5 -57 -9 l-56 -6 -17 62 -18 62 -45 -6 c-25 -3 -56 -6 -69 -6 -23 0 -24 -3
-24 -70 0 -49 -4 -70 -12 -70 -7 0 -31 -3 -52 -7 l-39 -6 7 364 c4 200 9 365
11 367 4 5 100 18 142 21 18 1 24 -8 37 -51z m-376 -35 c41 -30 60 -71 73
-153 29 -187 -6 -250 -152 -274 l-36 -6 19 -131 c11 -72 17 -133 15 -135 -2
-2 -28 -5 -57 -7 l-53 -2 -48 345 c-27 190 -47 350 -45 355 4 13 147 34 209
31 29 -2 59 -11 75 -23z m5874 -141 c118 -52 199 -189 210 -356 l3 -40 -116
-16 -117 -16 -11 69 c-15 89 -32 120 -76 141 -48 23 -107 13 -149 -24 -30 -27
-31 -31 -31 -107 1 -138 56 -213 270 -363 258 -183 347 -323 348 -550 1 -248
-136 -376 -403 -375 -90 1 -112 4 -155 25 -59 29 -117 84 -145 141 -17 33 -25
40 -43 36 -12 -3 -50 -9 -85 -13 -51 -5 -62 -10 -58 -23 9 -31 29 -211 25
-216 -7 -7 -679 -98 -684 -93 -3 2 -11 53 -20 113 -8 59 -16 110 -18 112 -2 1
-46 -3 -98 -11 -52 -7 -82 -14 -68 -15 25 -1 26 -3 39 -108 8 -60 13 -110 12
-113 -2 -6 -593 -88 -638 -89 l-31 -1 -15 111 c-9 61 -18 112 -20 115 -9 9
-178 -19 -178 -30 0 -6 14 -54 30 -106 16 -52 30 -100 30 -106 0 -13 -241 -48
-251 -36 -3 4 -18 52 -33 107 -16 55 -31 104 -35 108 -4 4 -80 -2 -169 -14
l-161 -22 -3 -121 -3 -121 -110 -16 c-60 -9 -112 -15 -115 -12 -3 3 -3 57 -1
120 l3 116 -72 -7 c-94 -10 -97 -11 -105 -53 -25 -136 -124 -225 -289 -260
-177 -37 -323 18 -403 154 -14 24 -32 43 -41 43 -22 0 -556 -72 -560 -75 -2
-2 4 -55 13 -120 9 -64 15 -118 13 -120 -3 -3 -232 -33 -235 -31 0 0 -8 52
-17 115 -9 63 -18 116 -20 118 -2 2 -33 1 -68 -3 l-65 -6 -6 -121 c-3 -75 -10
-122 -17 -127 -15 -9 -219 -35 -225 -28 -3 2 -19 51 -36 109 -18 57 -35 107
-39 112 -6 7 -137 -7 -146 -16 -2 -2 3 -54 12 -116 8 -62 13 -115 10 -119 -7
-6 -207 -34 -212 -29 -2 2 -11 55 -20 118 -8 62 -17 115 -18 117 -3 2 -147
-15 -182 -23 -15 -3 -25 -19 -37 -62 -40 -146 -149 -229 -329 -251 -176 -22
-313 40 -380 171 -19 37 -22 39 -56 33 -20 -3 -63 -8 -95 -12 l-59 -7 7 -56
c4 -31 15 -82 26 -115 10 -33 16 -62 14 -66 -2 -4 -50 -12 -107 -19 -57 -7
-111 -15 -121 -18 -23 -6 -44 44 -59 144 -6 43 -14 81 -17 85 -4 4 -62 0 -129
-9 -98 -13 -122 -19 -122 -32 0 -9 7 -63 15 -120 8 -57 14 -105 12 -107 -2 -2
-233 -34 -246 -34 -4 0 -13 49 -20 109 -8 60 -17 114 -21 121 -5 9 -40 7 -146
-8 -76 -11 -140 -19 -141 -18 -1 1 -13 91 -28 201 -14 110 -28 205 -30 211 -2
7 -44 5 -137 -8 -73 -10 -136 -19 -139 -21 -3 -1 15 -149 39 -330 25 -180 42
-330 38 -334 -6 -6 -237 -42 -243 -38 -5 3 -224 1617 -221 1620 11 10 664 92
669 84 10 -16 32 -209 25 -216 -5 -5 -359 -59 -407 -63 -5 0 59 -481 65 -487
5 -5 266 33 272 39 3 4 -4 80 -16 170 -12 90 -23 172 -23 182 -2 18 11 22 138
39 77 10 141 20 143 21 1 2 -8 80 -21 174 l-23 171 25 5 c120 24 418 57 482
54 149 -9 238 -80 282 -226 l22 -74 73 6 c40 4 79 9 86 12 8 3 15 32 19 79 13
151 70 241 190 299 172 84 377 61 480 -53 43 -47 65 -87 87 -159 9 -29 20 -53
23 -54 19 -2 151 14 166 20 16 7 16 18 -6 176 -13 93 -21 171 -19 174 9 8 341
51 347 44 4 -4 28 -77 54 -162 26 -85 51 -159 55 -164 5 -5 50 -4 107 3 158
20 140 -4 145 196 2 96 6 176 9 180 6 5 341 55 346 51 1 -1 13 -78 26 -171 21
-153 25 -170 43 -173 11 -2 137 13 279 33 143 19 263 35 266 35 4 0 9 42 11
93 5 104 25 160 78 221 86 97 298 145 440 99 96 -31 182 -132 212 -250 7 -27
18 -51 23 -52 6 -2 76 5 156 14 l146 18 7 66 c3 36 6 119 6 184 0 64 1 117 3
117 1 0 82 11 181 25 98 14 181 23 185 20 4 -2 29 -76 56 -163 26 -88 50 -164
54 -169 5 -9 336 29 347 39 2 3 -7 83 -20 178 -14 96 -24 175 -23 176 6 3 250
35 251 32 2 -2 13 -79 25 -173 12 -93 25 -172 27 -175 5 -4 554 67 559 72 2 2
-8 81 -21 177 -13 96 -23 176 -21 177 6 7 670 95 681 91 11 -4 43 -214 35
-221 -2 -2 -96 -16 -209 -31 -113 -15 -210 -28 -216 -30 -8 -2 -9 -20 -2 -61
5 -32 11 -60 14 -63 2 -2 137 13 299 34 l295 39 0 77 c0 184 95 304 272 344
85 20 211 14 270 -13z"/>
<path d="M5436 5332 c-4 -294 -6 -535 -4 -537 2 -2 73 6 159 18 l155 20 -48
166 c-27 91 -87 297 -133 456 -46 160 -93 317 -103 350 l-18 60 -8 -533z"/>
<path d="M2973 5617 c-49 -6 -83 -14 -83 -21 0 -6 20 -150 44 -321 l43 -310
59 2 c139 6 211 47 234 133 10 37 9 69 -5 185 -31 246 -58 314 -132 334 -42
12 -44 12 -160 -2z"/>
<path d="M3987 3570 c-4 -47 -7 -122 -7 -167 l0 -83 38 1 c74 1 74 -2 27 159
-23 80 -44 152 -47 160 -2 8 -8 -23 -11 -70z"/>
<path d="M3540 3633 c0 -10 7 -63 15 -118 8 -55 15 -102 15 -105 0 -13 70 4
85 20 15 17 16 29 6 100 -15 110 -21 120 -76 120 -36 0 -45 -3 -45 -17z"/>
<path d="M6740 2908 c0 -16 5 -28 10 -28 13 0 13 20 0 40 -8 12 -10 9 -10 -12z"/>
<path d="M5785 2886 c-45 -20 -67 -50 -72 -101 -7 -53 -12 -52 142 -30 55 8
103 15 107 15 8 0 -5 48 -21 79 -25 45 -97 63 -156 37z"/>
<path d="M9221 2637 c15 -105 28 -194 28 -195 1 -2 27 -1 60 3 l58 7 7 -64
c10 -86 22 -131 46 -161 45 -57 156 -54 206 6 24 29 26 37 22 102 -9 136 -61
204 -273 358 -66 48 -134 98 -151 112 l-30 25 27 -193z"/>
<path d="M3172 2523 c-39 -19 -62 -59 -62 -107 0 -33 2 -35 28 -30 15 2 71 11
125 18 53 7 100 16 103 19 12 11 -18 67 -48 92 -35 30 -96 33 -146 8z"/>
<path d="M2186 2383 c-38 -4 -38 -5 -32 -41 3 -20 6 -48 6 -61 0 -26 -7 -26
182 0 l77 11 -19 39 c-11 21 -29 43 -39 49 -19 10 -94 11 -175 3z"/>
<path d="M8948 2123 c7 -3 16 -2 19 1 4 3 -2 6 -13 5 -11 0 -14 -3 -6 -6z"/>
<path d="M8868 2113 c6 -2 18 -2 25 0 6 3 1 5 -13 5 -14 0 -19 -2 -12 -5z"/>
<path d="M8798 2103 c7 -3 16 -2 19 1 4 3 -2 6 -13 5 -11 0 -14 -3 -6 -6z"/>
<path d="M8728 2093 c7 -3 16 -2 19 1 4 3 -2 6 -13 5 -11 0 -14 -3 -6 -6z"/>
<path d="M8658 2083 c7 -3 16 -2 19 1 4 3 -2 6 -13 5 -11 0 -14 -3 -6 -6z"/>
<path d="M8068 2003 c6 -2 18 -2 25 0 6 3 1 5 -13 5 -14 0 -19 -2 -12 -5z"/>
<path d="M7988 1993 c6 -2 18 -2 25 0 6 3 1 5 -13 5 -14 0 -19 -2 -12 -5z"/>
<path d="M7918 1983 c6 -2 18 -2 25 0 6 3 1 5 -13 5 -14 0 -19 -2 -12 -5z"/>
<path d="M7843 1973 c9 -2 23 -2 30 0 6 3 -1 5 -18 5 -16 0 -22 -2 -12 -5z"/>
<path d="M7768 1963 c6 -2 18 -2 25 0 6 3 1 5 -13 5 -14 0 -19 -2 -12 -5z"/>
<path d="M5950 1723 c-19 -3 -39 -9 -44 -14 -16 -15 86 -10 114 6 l25 14 -30
-1 c-16 -1 -46 -3 -65 -5z"/>
<path d="M3390 1375 c-8 -2 -33 -7 -54 -10 -47 -8 -32 -25 22 -25 32 0 102 24
102 34 0 6 -43 6 -70 1z"/>
</g>
</svg>
